<?xml version="1.0" ?><svg viewBox="0 0 32 32" xmlns="http://www.w3.org/2000/svg"><defs><style>.cls-1{fill:#683b32;}.cls-2{fill:#844c3e;}.cls-3{fill:#a96555;}.cls-4{fill:#4fb15c;}.cls-5{fill:#39b54a;}.cls-6{fill:#308c34;}</style></defs><title/><g data-name="chocolate 3" id="chocolate_3"><path class="cls-1" d="M13.69,7.48a1,1,0,0,0,.08,1.41,1,1,0,0,0,.66.26,1,1,0,0,0,.75-.33l.15-.17c-.49-.5-.95-1-1.39-1.45Z"/><path class="cls-1" d="M19.67,2.3a1,1,0,0,0-1.42.08L13.94,7.2c.44.46.9,1,1.39,1.45l4.42-4.93A1,1,0,0,0,19.67,2.3Z"/><path class="cls-2" d="M14.14,7.41l-.06,0C13.75,7.57,5.8,11,4.59,17.1s4.84,12.3,5.1,12.56a1,1,0,0,0,.71.29,1.09,1.09,0,0,0,.39-.08c.33-.14,8.28-3.53,9.49-9.67A7.64,7.64,0,0,0,20.43,19a10.87,10.87,0,0,0-.95-6.32C17.54,10.88,15.67,9,14.14,7.41Z"/><path class="cls-2" d="M19.48,12.71a12.37,12.37,0,0,0-3.6-4.3c-.43-.49-.7-.77-.7-.77a1,1,0,0,0-1-.23C15.67,9,17.54,10.88,19.48,12.71Z"/><path class="cls-3" d="M14.91,8.34a1,1,0,0,0-.83-.16h0a.15.15,0,0,0-.07,0,1,1,0,0,0-.21.1.86.86,0,0,0-.2.18l-.05,0,0,.06-.06.07C8.73,15,7.42,21.6,9.54,28.24a1,1,0,0,0,.34.69,1,1,0,0,0,.65.24,1.29,1.29,0,0,0,.19,0l.15,0,0,0,.16-.08a.92.92,0,0,0,.22-.17l0,0c4.61-5.37,5.95-12,4-19.74A1,1,0,0,0,14.91,8.34Z"/><path class="cls-4" d="M27.25,19.63a.62.62,0,0,0,.07-.19c.05-.27,1.26-6.65-2.09-10s-9.73-2.15-10-2.1a1,1,0,0,0-.68.5A169.77,169.77,0,0,0,27.25,19.63Z"/><path class="cls-5" d="M14.55,7.84a1,1,0,0,0-.11.29c-.06.27-1.26,6.65,2.09,10,1.93,1.93,4.85,2.35,7,2.35a17,17,0,0,0,3-.25,1,1,0,0,0,.72-.6A169.77,169.77,0,0,1,14.55,7.84Z"/><path class="cls-6" d="M27.25,19.63a.62.62,0,0,0,.07-.19c.05-.27,1.26-6.65-2.09-10s-9.73-2.15-10-2.1a1,1,0,0,0-.68.5A169.77,169.77,0,0,0,27.25,19.63Z"/></g></svg>