<?xml version="1.0" ?><svg viewBox="0 0 32 32" xmlns="http://www.w3.org/2000/svg"><defs><style>.cls-1{fill:#a96555;}.cls-2{fill:#8e5449;}.cls-3{fill:#844c3e;}.cls-4{fill:#683b32;}</style></defs><title/><g data-name="chocolate 8" id="chocolate_8"><path class="cls-1" d="M28,11H21V4a1,1,0,0,0-1-1H4A1,1,0,0,0,3,4V28a1,1,0,0,0,1,1H28a1,1,0,0,0,1-1V12A1,1,0,0,0,28,11Z"/><path class="cls-2" d="M28,11H21V4a1,1,0,0,0-1-1H16V29H28a1,1,0,0,0,1-1V12A1,1,0,0,0,28,11Z"/><path class="cls-3" d="M13,27V21h3V19H13V13h3V11H13V5h3V3H4A1,1,0,0,0,3,4V28a1,1,0,0,0,1,1H16V27Zm-2,0H5V21h6Zm0-8H5V13h6Zm0-8H5V5h6Z"/><path class="cls-4" d="M28,11H21V4a1,1,0,0,0-1-1H16V5h3v6H16v2h3v6H16v2h3v6H16v2H28a1,1,0,0,0,1-1V12A1,1,0,0,0,28,11ZM27,27H21V21h6Zm0-8H21V13h6Z"/></g></svg>